# File created by Blade
# Date/Time:  Tue Apr 07 20:45:22 2015
# Frame Rate: 120.000 fps
#------------------------------------------------------
:FULLY-SPECIFIED
:DEGREES
268
root 4.328581 32.481793 -7.156426 1.150927 -12.517128 -15.907433
Spine 39.550148 15.363936 18.142592
Head -34.029579 -4.518142 9.442101
LeftShoulder -18.564117 39.488467 10.749459
LeftArm 58.356913 7.684293 -78.294215
LeftForeArm 2.726878 -0.000000 25.350058
LeftHand 7.400378 -0.000000 9.272846
LeftHandThumb1 -26.253704 0.000000 33.147579
RightShoulder 13.160448 9.045984 -13.659407
RightArm 25.266995 30.246361 87.018831
RightForeArm 79.994662 -0.000000 14.889389
RightHand 0.307094 -0.000000 35.633940
RightHandThumb1 -24.326973 -0.000000 -32.862282
LeftUpLeg -15.506236 -0.650431 8.601805
LeftLeg 28.479409 -0.000000 -0.000000
LeftFoot -10.955206 19.346727 -4.407014
LeftToeBase -15.927121 -0.000000 0.000000
RightUpLeg -130.356734 -17.383574 26.083601
RightLeg 106.415780 -0.000000 -0.000000
RightFoot 42.925671 -4.069904 9.571964
RightToeBase 16.869219 -0.000000 -0.000000
269
root 4.325980 32.483445 -7.149541 1.168703 -12.613680 -16.007830
Spine 39.376306 15.501094 18.139470
Head -33.832535 -4.554528 9.455374
LeftShoulder -18.543033 39.410390 10.856982
LeftArm 58.114426 7.351389 -78.638701
LeftForeArm 3.366885 -0.000000 25.800326
LeftHand 7.315693 -0.000000 9.268492
LeftHandThumb1 -26.253704 0.000000 33.147579
RightShoulder 13.085753 8.923036 -13.699183
RightArm 25.131490 30.748206 87.230574
RightForeArm 80.181291 -0.000000 15.666998
RightHand 0.382128 0.000000 35.380366
RightHandThumb1 -24.326973 -0.000000 -32.862282
LeftUpLeg -15.472004 -0.615937 8.695719
LeftLeg 28.506277 -0.000000 -0.000000
LeftFoot -11.047694 19.452706 -4.335155
LeftToeBase -15.869078 -0.000000 0.000000
RightUpLeg -130.587828 -17.310692 26.088465
RightLeg 106.259411 -0.000000 -0.000000
RightFoot 42.415500 -4.393464 8.956636
RightToeBase 17.056384 -0.000000 -0.000000
270
root 4.322124 32.485483 -7.139641 1.151843 -12.696151 -16.116794
Spine 39.231975 15.611948 18.160517
Head -33.637193 -4.620880 9.465404
LeftShoulder -18.508478 39.375517 10.952230
LeftArm 57.880883 6.922584 -79.047937
LeftForeArm 3.935439 -0.000000 26.272291
LeftHand 7.349852 -0.000000 9.182384
LeftHandThumb1 -26.253704 0.000000 33.147579
RightShoulder 13.020340 8.787615 -13.755434
RightArm 25.113116 31.398930 87.541192
RightForeArm 80.113839 -0.000000 16.402034
RightHand 0.399409 -0.000000 35.206945
RightHandThumb1 -24.326973 -0.000000 -32.862282
LeftUpLeg -15.393825 -0.634046 8.794492
LeftLeg 28.529038 -0.000000 -0.000000
LeftFoot -11.118106 19.587821 -4.201154
LeftToeBase -16.543448 -0.000000 0.000000
RightUpLeg -130.797230 -17.302173 26.041703
RightLeg 106.053445 -0.000000 -0.000000
RightFoot 41.982386 -4.475978 8.367581
RightToeBase 16.874776 -0.000000 -0.000000
271
root 4.318031 32.487254 -7.130482 1.130922 -12.781462 -16.237319
Spine 39.071242 15.679315 18.152038
Head -33.389106 -4.625840 9.486538
LeftShoulder -18.548157 39.386382 10.997980
LeftArm 57.675735 6.458865 -79.422010
LeftForeArm 4.299135 -0.000000 26.766542
LeftHand 7.309811 -0.000000 9.524124
LeftHandThumb1 -26.253704 0.000000 33.147579
RightShoulder 13.018427 8.770868 -13.810034
RightArm 24.994848 32.033174 87.778264
RightForeArm 80.129585 0.000000 17.041681
RightHand 0.445063 -0.000000 35.227157
RightHandThumb1 -24.326973 -0.000000 -32.862282
LeftUpLeg -15.302466 -0.692405 8.904683
LeftLeg 28.540290 -0.000000 -0.000000
LeftFoot -11.224104 19.786616 -4.140801
LeftToeBase -16.543133 -0.000000 0.000000
RightUpLeg -131.021189 -17.328899 25.976387
RightLeg 105.769567 -0.000000 -0.000000
RightFoot 41.735579 -4.504495 8.246384
RightToeBase 16.596455 -0.000000 -0.000000
272
root 4.312905 32.489829 -7.118637 1.070742 -12.865535 -16.403944
Spine 38.965646 15.736755 18.229015
Head -33.148792 -4.700514 9.503794
LeftShoulder -18.543833 39.388397 11.062185
LeftArm 57.449846 5.937572 -79.834312
LeftForeArm 4.679172 0.000000 27.267747
LeftHand 7.335780 -0.000000 9.552062
LeftHandThumb1 -26.253704 0.000000 33.147579
RightShoulder 12.967065 8.764522 -13.837719
RightArm 24.950904 32.696675 87.988146
RightForeArm 80.012091 -0.000000 17.731291
RightHand 0.527678 0.000000 35.012133
RightHandThumb1 -24.326973 -0.000000 -32.862282
LeftUpLeg -15.160711 -0.754848 9.056494
LeftLeg 28.563027 -0.000000 -0.000000
LeftFoot -11.362781 20.035560 -3.986730
LeftToeBase -15.790156 -0.000000 0.000000
RightUpLeg -131.177923 -17.372064 25.817383
RightLeg 105.420543 -0.000000 -0.000000
RightFoot 41.696127 -4.483580 8.545132
RightToeBase 16.410286 -0.000000 -0.000000
273
root 4.307598 32.491926 -7.106582 1.015156 -12.953957 -16.562700
Spine 38.835431 15.793731 18.271889
Head -32.876253 -4.728948 9.555298
LeftShoulder -18.532581 39.390830 11.169897
LeftArm 57.190873 5.413221 -80.205695
LeftForeArm 5.104570 -0.000000 27.760565
LeftHand 7.447285 -0.000000 9.228723
LeftHandThumb1 -26.253704 0.000000 33.147579
RightShoulder 12.959099 8.724512 -13.872453
RightArm 24.917189 33.386529 88.147095
RightForeArm 79.879156 -0.000000 18.475123
RightHand 0.440709 -0.000000 35.053630
RightHandThumb1 -24.326973 -0.000000 -32.862282
LeftUpLeg -15.042148 -0.714926 9.199354
LeftLeg 28.617357 -0.000000 -0.000000
LeftFoot -11.474667 20.124764 -3.900865
LeftToeBase -15.550813 -0.000000 0.000000
RightUpLeg -131.427289 -17.430168 25.812073
RightLeg 104.992611 -0.000000 -0.000000
RightFoot 41.853443 -4.342839 8.756389
RightToeBase 16.759487 -0.000000 -0.000000
274
root 4.301632 32.493486 -7.096982 0.999643 -13.037316 -16.733773
Spine 38.662564 15.864635 18.321976
Head -32.610861 -4.761253 9.606769
LeftShoulder -18.502473 39.351107 11.274338
LeftArm 56.886881 4.825791 -80.548228
LeftForeArm 5.317582 -0.000000 28.301531
LeftHand 7.304521 -0.000000 9.538178
LeftHandThumb1 -26.253704 0.000000 33.147579
RightShoulder 12.927068 8.730901 -13.879121
RightArm 24.828393 34.029672 88.167576
RightForeArm 79.693568 -0.000000 19.291705
RightHand 0.460790 -0.000000 34.729815
RightHandThumb1 -24.326973 -0.000000 -32.862282
LeftUpLeg -14.975484 -0.647570 9.360759
LeftLeg 28.686621 -0.000000 -0.000000
LeftFoot -11.565369 20.193601 -3.818678
LeftToeBase -15.525350 -0.000000 0.000000
RightUpLeg -131.753020 -17.479669 25.891421
RightLeg 104.472884 -0.000000 -0.000000
RightFoot 42.086048 -4.149955 8.938099
RightToeBase 17.261672 -0.000000 -0.000000
275
root 4.295074 32.494437 -7.087184 0.993807 -13.130676 -16.933509
Spine 38.476071 15.915016 18.387878
Head -32.341378 -4.766907 9.626302
LeftShoulder -18.562376 39.444904 11.277011
LeftArm 56.724475 4.197914 -80.803749
LeftForeArm 5.522988 -0.000000 28.828414
LeftHand 7.217159 0.000000 9.667414
LeftHandThumb1 -26.253704 0.000000 33.147579
RightShoulder 12.943492 8.741306 -13.915240
RightArm 24.721500 34.867889 88.250729
RightForeArm 79.128107 0.000000 20.317168
RightHand 0.476217 -0.000000 34.446980
RightHandThumb1 -24.326973 -0.000000 -32.862282
LeftUpLeg -14.931444 -0.594624 9.550307
LeftLeg 28.801379 -0.000000 -0.000000
LeftFoot -11.662823 20.282290 -3.747785
LeftToeBase -15.504433 -0.000000 0.000000
RightUpLeg -132.061015 -17.488831 25.939640
RightLeg 103.880844 -0.000000 -0.000000
RightFoot 42.183423 -3.950592 9.041015
RightToeBase 17.340076 -0.000000 -0.000000
276
root 4.282376 32.496355 -7.075451 0.957015 -13.284884 -17.171804
Spine 38.348247 16.027369 18.490758
Head -32.071165 -4.754933 9.697021
LeftShoulder -18.555437 39.438765 11.367586
LeftArm 56.434925 3.502504 -81.108206
LeftForeArm 5.704625 -0.000000 29.369772
LeftHand 7.206957 -0.000000 9.640073
LeftHandThumb1 -26.253704 0.000000 33.147579
RightShoulder 12.909357 8.728826 -13.947601
RightArm 24.690021 35.605249 88.249617
RightForeArm 78.557778 0.000000 21.262809
RightHand 0.558409 -0.000000 34.196040
RightHandThumb1 -24.326973 -0.000000 -32.862282
LeftUpLeg -14.830777 -0.493099 9.795383
LeftLeg 28.928051 -0.000000 -0.000000
LeftFoot -11.791008 20.321716 -3.745658
LeftToeBase -15.561302 -0.000000 0.000000
RightUpLeg -132.313881 -17.454247 25.993539
RightLeg 103.241632 -0.000000 -0.000000
RightFoot 42.060136 -3.846012 9.350946
RightToeBase 17.746640 -0.000000 -0.000000
